<svg id="thumb-up" viewBox="0 0 44 44">
    <path fill="#fff" d="M14.4914731,10.5133658 C14.5025232,10.3721258 14.5112703,10.2600368 14.5373244,9.92616603 C14.6065316,9.03836208 14.6757357,8.14414039 14.7403047,7.30077512 C14.7465683,7.21894322 14.7465683,7.21894322 14.752828,7.13707632 C14.9046548,5.15090242 15.0272627,3.45867565 15.0272627,3.40867664 L15.0272627,1.53263123 L16.7144227,0.711648736 C16.9560747,0.594059357 17.2924682,0.45883302 17.7131667,0.333356234 C19.0883517,-0.0768040048 20.5613519,-0.154799924 22.0533288,0.363315376 C24.5195179,1.21974305 26.1769774,3.46135556 26.8035959,6.84975024 C27.351817,9.81421638 27.5019717,12.9866944 27.3599098,16.0115829 L34.1297665,16.0259652 L34.2527202,16.036358 C37.3831944,16.3009647 40,18.0263548 40,21.50351 C40,22.0672808 39.9265137,22.5421505 39.8025926,23.0579114 C40.5520589,23.9178872 41,25.0573442 41,26.5026539 C41,28.4265345 40.1989133,29.8141446 38.9529692,30.7147706 C39,31.0829242 39,31.2285855 39,31.5017978 C39,33.4256784 38.1989133,34.8132885 36.9529692,35.7139145 C37,36.1120923 37,36.2277294 37,36.5009417 C37,39.978097 34.3831944,41.703487 31.2527202,41.9680938 L31.1299097,41.9784745 L31.0066614,41.9787481 L21.4308667,42 C17.3598399,42 15.3049785,41.5120961 12.3004159,40.2094732 C10.4281403,39.3976996 9.56555009,39.1413507 7.75086356,38.9901527 L5,38.7609533 L5,22.2682088 L9.98007986,19.4037917 L14.4914731,10.5133658 Z M23.8535989,7.39510873 C22.6962315,1.13672751 18.0272627,3.40867664 18.0272627,3.40867664 C18.0272627,3.82250684 17.4358448,11.340371 17.4358448,11.340371 L12.2509485,21.558043 L8,24.003082 L8,36.0010273 C14,36.5009417 13.6061821,39.0005137 21.4308667,39.0005137 L31,38.9792692 C32.339044,38.866085 34,38.2712124 34,36.5009417 C34,34.730671 32.339044,34.1357984 31,34.0013698 L33,33.9801253 C34.339044,33.8669411 36,33.2720686 36,31.5017978 C36,29.7315271 34.339044,29.1366545 33,29.0022259 L35,28.9809814 C36.339044,28.8677972 38,28.2729247 38,26.5026539 C38,24.7323832 36.339044,24.1375106 35,24.003082 L34,23.9818375 C35.339044,23.8686533 37,23.2737808 37,21.50351 C37,19.7332393 35.339044,19.1383668 34,19.0251826 L24.0526449,19.0040499 C24.2446335,18.1909366 24.845597,12.7592672 23.8535989,7.39510873 Z" />
</svg>