<svg id="thumb-down" viewBox="0 0 44 44">
    <path fill="currentColor" d="M29.5085269,33.4866342 C29.4974768,33.6278742 29.4887297,33.7399632 29.4626756,34.073834 C29.3934684,34.9616379 29.3242643,35.8558596 29.2596953,36.6992249 C29.2534317,36.7810568 29.2534317,36.7810568 29.247172,36.8629237 C29.0953452,38.8490976 28.9727373,40.5413244 28.9727373,40.5913234 L28.9727373,42.4673688 L27.2855773,43.2883513 C27.0439253,43.4059406 26.7075318,43.541167 26.2868333,43.6666438 C24.9116483,44.076804 23.4386481,44.1547999 21.9466712,43.6366846 C19.4804821,42.780257 17.8230226,40.5386444 17.1964041,37.1502498 C16.648183,34.1857836 16.4980283,31.0133056 16.6400902,27.9884171 L9.87023353,27.9740348 L9.74727981,27.963642 C6.61680565,27.6990353 4,25.9736452 4,22.49649 C4,21.9327192 4.07348633,21.4578495 4.19740742,20.9420886 C3.44794109,20.0821128 3,18.9426558 3,17.4973461 C3,15.5734655 3.80108673,14.1858554 5.04703083,13.2852294 C5,12.9170758 5,12.7714145 5,12.4982022 C5,10.5743216 5.80108673,9.18671152 7.04703083,8.28608555 C7,7.88790771 7,7.77227059 7,7.49905828 C7,4.02190301 9.61680565,2.29651296 12.7472798,2.03190622 L12.8700903,2.02152553 L12.9933386,2.0212519 L22.5691333,2 C26.6401601,2 28.6950215,2.48790389 31.6995841,3.79052685 C33.5718597,4.60230044 34.4344499,4.8586493 36.2491364,5.00984729 L39,5.23904667 L39,21.7317912 L34.0199201,24.5962083 L29.5085269,33.4866342 Z M20.1464011,36.6048913 C21.3037685,42.8632725 25.9727373,40.5913234 25.9727373,40.5913234 C25.9727373,40.1774932 26.5641552,32.659629 26.5641552,32.659629 L31.7490515,22.441957 L36,19.996918 L36,7.99897267 C30,7.49905828 30.3938179,4.99948634 22.5691333,4.99948634 L13,5.02073084 C11.660956,5.133915 10,5.72878756 10,7.49905828 C10,9.26932901 11.660956,9.86420157 13,9.99863023 L11,10.0198747 C9.66095598,10.1330589 8,10.7279314 8,12.4982022 C8,14.2684729 9.66095598,14.8633455 11,14.9977741 L9,15.0190186 C7.66095598,15.1322028 6,15.7270753 6,17.4973461 C6,19.2676168 7.66095598,19.8624894 9,19.996918 L10,20.0181625 C8.66095598,20.1313467 7,20.7262192 7,22.49649 C7,24.2667607 8.66095598,24.8616332 10,24.9748174 L19.9473551,24.9959501 C19.7553665,25.8090634 19.154403,31.2407328 20.1464011,36.6048913 Z" />
</svg>